<?xml version="1.0" standalone="no"?>
<!DOCTYPE svg PUBLIC "-//W3C//DTD SVG 20010904//EN"
 "http://www.w3.org/TR/2001/REC-SVG-20010904/DTD/svg10.dtd">
<svg version="1.0" xmlns="http://www.w3.org/2000/svg"
 width="512.000000pt" height="512.000000pt" viewBox="0 0 512.000000 512.000000"
 preserveAspectRatio="xMidYMid meet">
<metadata>
Created by potrace 1.11, written by Peter Selinger 2001-2013
</metadata>
<g transform="translate(0.000000,512.000000) scale(0.100000,-0.100000)"
fill="#000000" stroke="none">
<path d="M2390 5089 c-47 -5 -107 -11 -135 -13 -51 -5 -78 -9 -175 -27 -86
-17 -223 -50 -245 -59 -11 -5 -38 -14 -60 -20 -22 -6 -49 -15 -60 -20 -11 -4
-40 -16 -65 -25 -91 -34 -203 -86 -208 -97 -2 -5 -10 -8 -18 -8 -7 0 -33 -11
-56 -25 -24 -14 -60 -33 -80 -42 -21 -10 -38 -21 -38 -25 0 -5 -6 -8 -13 -8
-7 0 -22 -8 -33 -17 -10 -10 -30 -24 -44 -31 -23 -12 -122 -83 -160 -115 -8
-7 -30 -23 -48 -35 -18 -13 -30 -28 -27 -33 4 -5 -1 -9 -10 -9 -28 0 -297
-278 -361 -373 -16 -23 -35 -48 -43 -56 -12 -13 -76 -110 -147 -222 -71 -114
-170 -342 -229 -527 -94 -301 -138 -722 -94 -898 7 -28 9 -49 3 -51 -10 -3 -2
-125 14 -213 37 -194 52 -252 102 -395 60 -172 67 -188 126 -307 59 -117 68
-133 173 -293 73 -112 79 -120 104 -143 9 -9 17 -20 17 -24 0 -15 310 -338
325 -338 4 0 20 -13 35 -30 15 -16 31 -30 34 -30 6 0 36 -23 61 -48 8 -6 18
-12 24 -12 6 0 11 -4 11 -8 0 -5 17 -18 38 -29 20 -12 46 -30 57 -40 11 -10
38 -27 60 -39 53 -27 89 -48 95 -54 3 -3 28 -16 55 -30 28 -14 51 -28 53 -32
2 -5 9 -8 16 -8 7 0 35 -11 62 -25 27 -14 54 -25 60 -25 6 0 32 -11 58 -25 26
-14 54 -25 62 -25 8 0 22 -4 32 -10 34 -18 254 -80 352 -99 160 -30 239 -36
495 -36 234 0 288 3 405 23 74 12 151 26 170 31 80 21 246 72 262 81 10 6 24
10 32 10 8 0 36 11 61 25 26 13 62 27 81 31 19 3 34 10 34 15 0 5 9 9 20 9 11
0 20 5 20 10 0 6 9 10 20 10 11 0 20 3 20 8 0 4 25 18 55 32 30 14 55 28 55
33 0 4 9 7 20 7 11 0 20 4 20 8 0 5 21 20 48 33 26 13 49 27 50 32 2 4 10 7
18 7 8 0 14 5 14 10 0 6 7 10 15 10 8 0 15 4 15 8 0 4 12 15 28 24 15 9 37 25
49 35 52 44 64 53 69 53 3 0 16 10 29 23 13 12 46 42 75 67 71 62 146 137 200
200 25 29 55 63 68 76 12 13 22 27 22 31 0 5 8 16 18 24 9 9 24 26 32 38 13
21 33 45 58 77 5 5 15 21 22 35 7 13 16 26 20 29 4 3 18 25 30 50 12 25 26 47
30 50 11 8 136 260 163 330 77 198 141 434 153 563 5 58 4 77 -6 77 -8 0 -10
6 -5 18 9 22 23 111 37 233 17 151 -18 467 -78 703 -56 221 -200 549 -313 716
-6 8 -22 32 -35 52 -34 52 -70 102 -76 108 -3 3 -21 25 -40 50 -88 114 -318
344 -420 420 -18 14 -39 31 -46 38 -7 6 -17 12 -22 12 -6 0 -12 4 -14 8 -4 12
-95 72 -107 72 -6 0 -11 4 -11 8 0 5 -12 15 -27 23 -16 8 -30 16 -33 19 -3 3
-23 14 -45 26 -22 11 -57 31 -78 42 -21 12 -44 22 -51 22 -8 0 -16 3 -18 8 -3
7 -59 35 -133 67 -22 9 -53 23 -69 31 -16 8 -36 14 -46 14 -9 0 -20 4 -25 8
-6 5 -30 14 -55 21 -25 7 -54 17 -65 21 -27 11 -174 46 -255 60 -36 6 -74 13
-85 16 -42 9 -343 34 -405 33 -36 -1 -103 -6 -150 -10z m-283 -1079 c28 -6 54
-19 60 -29 14 -22 41 -123 54 -196 4 -27 15 -77 22 -110 8 -33 24 -107 36
-165 12 -58 26 -121 31 -140 14 -54 67 -288 80 -355 6 -33 18 -89 26 -125 8
-36 24 -103 34 -150 11 -47 26 -113 34 -147 8 -34 21 -69 29 -78 35 -34 101
-5 112 49 10 54 68 338 80 396 8 36 21 99 29 140 8 41 24 120 36 175 34 159
54 266 65 340 3 28 11 59 15 70 13 28 50 213 50 246 0 15 7 35 16 43 8 9 12
16 7 17 -4 0 15 7 42 15 61 17 710 21 720 4 3 -5 15 -10 25 -10 31 0 38 -42
56 -325 7 -113 21 -313 34 -475 10 -123 21 -267 40 -537 5 -76 14 -192 20
-258 12 -135 26 -324 40 -525 20 -297 30 -422 36 -444 6 -24 -8 -59 -32 -83
-10 -10 -79 -13 -290 -13 -271 0 -277 0 -295 22 -21 23 -21 24 -24 88 -7 145
-27 597 -35 790 -22 539 -22 539 -40 560 -11 13 -30 20 -52 20 -40 0 -50 -15
-68 -105 -6 -27 -24 -111 -41 -185 -16 -74 -32 -146 -35 -160 -7 -33 -60 -266
-81 -355 -9 -38 -22 -99 -29 -135 -25 -128 -54 -230 -70 -247 -10 -10 -82 -13
-295 -13 -276 0 -282 0 -300 22 -11 11 -24 38 -29 60 -6 21 -14 55 -20 76 -5
20 -18 82 -29 137 -12 55 -30 136 -42 180 -11 44 -24 98 -29 120 -7 41 -41
179 -64 270 -7 28 -25 97 -38 155 -33 139 -31 133 -45 147 -14 15 -87 18 -78
3 3 -5 -1 -10 -9 -10 -9 0 -16 -1 -17 -2 -1 -2 -5 -124 -10 -273 -7 -248 -13
-380 -38 -920 -5 -115 -14 -201 -21 -217 l-13 -28 -284 0 c-217 0 -287 3 -297
13 -31 31 -36 55 -26 129 13 95 33 340 60 733 17 249 29 421 45 610 29 351 51
649 73 985 11 158 20 185 71 198 49 14 638 15 698 2z"/>
</g>
</svg>
