<?xml version="1.0" standalone="no"?>
<!DOCTYPE svg PUBLIC "-//W3C//DTD SVG 20010904//EN"
 "http://www.w3.org/TR/2001/REC-SVG-20010904/DTD/svg10.dtd">
<svg version="1.0" xmlns="http://www.w3.org/2000/svg"
 width="512.000000pt" height="512.000000pt" viewBox="0 0 512.000000 512.000000"
 preserveAspectRatio="xMidYMid meet">
<metadata>
Created by potrace 1.11, written by Peter Selinger 2001-2013
</metadata>
<g transform="translate(0.000000,512.000000) scale(0.100000,-0.100000)"
fill="#000000" stroke="none">
<path d="M2560 4973 c-69 -5 -146 -26 -210 -56 -81 -39 -194 -149 -232 -227
-56 -113 -74 -255 -47 -366 44 -186 212 -353 394 -395 234 -52 479 59 587 267
31 61 40 84 55 144 10 42 8 162 -4 215 -56 252 -295 435 -543 418z"/>
<path d="M1223 4141 c-90 -31 -158 -92 -201 -181 -22 -46 -27 -68 -27 -140 0
-103 27 -170 95 -239 68 -68 137 -96 240 -96 103 0 170 27 239 96 69 69 96
136 96 239 0 73 -4 93 -28 142 -76 155 -256 233 -414 179z"/>
<path d="M3735 4151 c-90 -25 -181 -96 -221 -172 -88 -171 -14 -386 161 -470
71 -34 207 -34 279 0 181 85 253 313 153 481 -45 74 -130 141 -199 156 -46 10
-144 12 -173 5z"/>
<path d="M2425 3805 c-112 -15 -208 -39 -307 -77 -82 -31 -202 -91 -229 -114
-8 -8 -19 -14 -23 -14 -4 0 -12 -5 -19 -10 -7 -6 -37 -29 -67 -53 -60 -46
-104 -87 -99 -91 2 -1 43 -28 90 -59 80 -52 186 -155 234 -225 l20 -30 125 50
c469 184 434 175 515 139 11 -5 67 -27 125 -49 58 -22 152 -59 209 -81 57 -23
111 -41 120 -41 9 0 24 12 33 28 15 25 124 140 162 170 33 26 109 75 143 92
l36 17 -62 51 c-34 29 -92 72 -129 96 -75 48 -230 126 -253 126 -8 0 -19 4
-25 9 -10 10 -195 57 -264 67 -82 11 -244 11 -335 -1z"/>
<path d="M1173 3369 c-301 -76 -535 -373 -569 -723 -6 -65 -6 -69 12 -62 11 4
69 27 129 51 61 23 193 75 295 114 102 40 194 76 205 81 11 5 128 50 260 101
350 134 380 147 380 157 0 18 -90 114 -149 158 -172 130 -369 173 -563 123z"/>
<path d="M3671 3374 c-130 -29 -272 -116 -369 -227 -24 -27 -40 -53 -35 -57 4
-4 98 -42 208 -85 489 -189 561 -217 580 -225 11 -5 81 -33 155 -61 74 -29
180 -69 235 -90 55 -22 101 -39 102 -39 4 0 -10 97 -22 159 -28 147 -123 325
-231 435 -49 49 -146 118 -204 144 -123 57 -289 75 -419 46z"/>
<path d="M2555 3130 c-11 -5 -92 -37 -180 -71 -88 -33 -169 -65 -180 -70 -18
-8 -113 -45 -425 -165 -63 -25 -124 -49 -135 -54 -11 -5 -139 -55 -285 -111
-439 -169 -576 -223 -770 -299 -102 -40 -205 -80 -230 -90 -178 -68 -270 -105
-270 -110 0 -3 105 -45 233 -94 127 -49 246 -95 262 -102 17 -7 107 -43 200
-79 94 -36 186 -72 205 -80 64 -26 324 -127 385 -150 95 -35 428 -165 450
-174 11 -5 101 -41 200 -79 99 -39 268 -104 375 -146 l196 -76 234 91 c129 49
285 110 345 134 110 43 499 195 630 245 189 73 442 171 460 179 11 5 70 28
130 51 61 24 131 51 157 61 l47 18 0 -209 c0 -127 -4 -210 -9 -210 -6 0 -28
-16 -49 -36 -71 -63 -74 -80 -75 -464 l-1 -340 25 -1 c36 -1 361 -1 390 0 l25
1 -1 347 c-1 333 -2 350 -22 389 -19 38 -83 104 -100 104 -5 0 -8 110 -8 244
l-1 244 136 52 c75 29 152 59 171 67 l35 14 -65 25 c-36 14 -92 36 -125 49
-201 79 -313 122 -500 194 -115 45 -219 86 -230 91 -11 5 -87 35 -170 66 -82
31 -163 62 -180 69 -32 14 -281 111 -550 215 -88 34 -200 78 -250 97 -269 105
-447 173 -453 172 -4 0 -16 -4 -27 -9z"/>
<path d="M917 1601 c-2 -3 -3 -236 -3 -517 1 -387 4 -515 14 -526 6 -8 9 -18
5 -21 -3 -4 23 -35 59 -70 81 -79 256 -171 408 -213 175 -48 165 -46 280 -69
97 -19 126 -24 175 -30 22 -3 50 -7 62 -9 12 -3 53 -8 90 -11 37 -4 79 -8 93
-11 149 -24 768 -24 985 1 210 24 238 28 325 45 30 6 71 13 90 16 69 10 267
65 363 100 180 66 299 141 358 228 l34 49 2 523 2 523 -37 -14 c-20 -7 -188
-72 -372 -145 -184 -72 -339 -132 -345 -134 -5 -2 -23 -8 -40 -15 -16 -6 -106
-41 -200 -77 -93 -36 -179 -70 -190 -75 -11 -5 -72 -29 -135 -53 -63 -24 -168
-64 -232 -90 l-117 -45 -53 18 c-29 10 -118 44 -198 76 -350 137 -656 256
-1045 406 -71 28 -139 54 -150 59 -65 30 -226 87 -228 81z"/>
</g>
</svg>
