<?xml version="1.0" standalone="no"?>
<!DOCTYPE svg PUBLIC "-//W3C//DTD SVG 20010904//EN"
 "http://www.w3.org/TR/2001/REC-SVG-20010904/DTD/svg10.dtd">
<svg version="1.0" xmlns="http://www.w3.org/2000/svg"
 width="890.000000pt" height="890.000000pt" viewBox="0 0 890.000000 890.000000"
 preserveAspectRatio="xMidYMid meet">
<metadata>
Created by potrace 1.11, written by Peter Selinger 2001-2013
</metadata>
<g transform="translate(0.000000,890.000000) scale(0.100000,-0.100000)"
fill="#000000" stroke="none">
<path d="M3287 6709 c-811 -62 -1553 -589 -1883 -1337 -144 -329 -203 -637
-191 -1007 14 -420 143 -823 373 -1166 256 -382 601 -665 1026 -843 564 -236
1211 -228 1778 21 511 225 928 506 1405 943 388 356 702 562 1058 694 234 87
417 121 642 118 88 0 168 1 178 4 16 5 17 46 17 675 l0 669 -42 0 c-99 0 -324
-51 -500 -114 -561 -199 -1020 -572 -1345 -1093 -42 -68 -77 -122 -78 -120 -1
1 1 29 6 62 11 88 10 376 -1 480 -55 493 -267 949 -615 1323 -217 233 -591
471 -906 576 -313 104 -599 140 -922 115z m468 -205 c532 -73 997 -336 1339
-756 129 -159 278 -426 339 -608 162 -484 154 -985 -23 -1445 -103 -267 -285
-536 -503 -745 -317 -303 -710 -492 -1157 -556 -123 -18 -422 -20 -525 -4
-275 42 -440 93 -662 201 -263 129 -463 279 -636 478 -305 350 -479 753 -518
1199 -10 112 -7 361 5 432 2 14 7 48 11 75 4 28 18 97 32 154 248 1040 1240
1720 2298 1575z m3735 -1703 l0 -459 -77 -7 c-250 -20 -372 -41 -526 -86 -38
-11 -70 -19 -71 -17 -1 2 -7 39 -14 83 -6 44 -29 199 -51 344 -23 145 -39 267
-36 270 6 11 150 94 241 139 152 76 281 122 532 191 1 1 2 -206 2 -458z m-956
-121 c9 -58 30 -193 46 -300 16 -107 30 -203 30 -212 0 -12 -21 -27 -65 -47
-86 -39 -233 -122 -320 -180 -38 -26 -75 -50 -81 -54 -7 -4 -22 36 -44 116
-18 67 -41 152 -51 189 l-20 68 55 74 c104 141 244 294 356 390 41 36 76 64
76 63 1 -1 9 -49 18 -107z m-614 -816 l33 -121 -44 -39 c-24 -21 -129 -122
-233 -224 -103 -102 -183 -174 -176 -160 8 14 30 52 50 85 53 87 252 448 291
527 18 37 36 64 40 60 3 -4 21 -62 39 -128z"/>
<path d="M3264 6410 c-194 -19 -440 -89 -629 -179 -257 -123 -476 -288 -649
-491 -575 -672 -640 -1623 -162 -2364 359 -556 982 -894 1651 -896 269 0 602
74 844 187 65 31 245 138 313 187 300 215 563 560 689 901 131 356 159 767 78
1125 -116 511 -427 953 -870 1235 -64 41 -151 90 -194 110 -164 77 -403 150
-570 175 -99 15 -393 20 -501 10z m166 -240 c312 -48 528 -309 507 -614 -28
-411 -469 -668 -831 -485 -128 65 -220 159 -276 284 -98 217 -57 463 106 635
96 100 207 159 344 179 78 12 78 12 150 1z m1258 -713 c106 -31 179 -77 261
-162 118 -124 169 -264 158 -434 -12 -181 -98 -335 -244 -435 -310 -212 -731
-89 -870 254 -115 287 12 612 292 744 125 60 270 71 403 33z m-2182 -220 c92
-34 152 -72 225 -147 116 -117 169 -245 169 -405 0 -158 -48 -279 -155 -394
-99 -106 -197 -157 -346 -181 -179 -29 -393 53 -518 197 -101 117 -154 294
-133 449 37 275 260 488 532 507 59 4 183 -10 226 -26z m1835 -1107 c30 -5 90
-28 135 -50 184 -90 305 -274 321 -485 15 -205 -105 -429 -286 -534 -106 -62
-159 -75 -296 -76 -112 0 -125 3 -201 33 -177 71 -304 210 -358 391 -24 80
-21 231 5 316 76 246 295 414 540 415 48 0 111 -4 140 -10z m-1361 -122 c123
-23 256 -112 336 -223 142 -200 145 -464 7 -668 -89 -132 -213 -215 -363 -243
-300 -57 -587 120 -674 415 -26 87 -21 249 9 334 34 99 81 170 158 243 147
139 310 183 527 142z"/>
<path d="M3278 5594 c-87 -16 -202 -52 -300 -96 -78 -35 -77 -32 -25 -131 34
-65 126 -156 190 -189 64 -32 134 -48 217 -48 138 0 249 48 339 146 56 61 110
169 118 234 l6 49 -44 11 c-147 40 -357 50 -501 24z"/>
<path d="M4213 5236 c-138 -128 -185 -332 -116 -509 41 -105 154 -221 251
-257 76 -29 189 -44 243 -33 l44 9 -3 64 c-5 98 -30 233 -59 313 -55 155 -172
347 -265 435 l-35 33 -60 -55z"/>
<path d="M2497 5072 c-62 -97 -117 -229 -153 -367 -15 -55 -19 -107 -19 -240
0 -93 4 -187 8 -207 7 -33 12 -38 36 -38 38 0 105 21 175 56 70 34 164 132
200 208 62 131 57 290 -12 419 -37 69 -117 154 -180 190 l-31 18 -24 -39z"/>
<path d="M4101 4014 c-170 -45 -310 -197 -342 -369 -18 -100 7 -263 46 -295
16 -13 128 28 235 87 161 88 328 247 417 399 l53 89 -23 18 c-95 74 -261 105
-386 71z"/>
<path d="M2730 3896 c-58 -15 -131 -52 -172 -86 l-32 -27 29 -39 c104 -139
296 -289 458 -357 98 -41 237 -80 264 -75 22 4 30 39 32 136 2 124 -47 239
-141 331 -112 110 -291 157 -438 117z"/>
</g>
</svg>
